<svg width="62" height="62" viewBox="0 0 62 62" fill="none" xmlns="http://www.w3.org/2000/svg">
<rect width="62" height="62" fill="white"/>
<path d="M45.6599 5.46802C39.1649 5.46802 23.0587 5.46802 17.1916 5.46802C13.7715 5.46802 11 8.2395 11 11.6594V54.8085C11 58.2286 13.7715 61 17.1916 61H45.6599C49.08 61 51.8513 58.2285 51.8513 54.8085V11.6594C51.8514 8.2395 49.08 5.46802 45.6599 5.46802Z" fill="#D8ECFE"/>
<rect x="23.562" y="32.7944" width="11.8447" height="3.94823" fill="white"/>
<rect x="23.562" y="40.6909" width="23.6894" height="3.94823" fill="white"/>
<rect x="23.562" y="48.5872" width="23.6894" height="7.89645" fill="white"/>
<path d="M41.6384 7.09574C41.6384 8.64857 40.3806 9.93616 38.798 9.93616H24.0533C22.4844 9.93616 21.2129 8.66463 21.2129 7.09574C21.2129 3.73809 23.9353 1 27.3086 1H35.5427C38.8918 1 41.6384 3.71286 41.6384 7.09574Z" fill="#666666"/>
<path d="M35.8938 7.38305H26.9576C26.605 7.38305 26.3193 7.09737 26.3193 6.74475C26.3193 6.39227 26.605 6.10645 26.9576 6.10645H35.8938C36.2464 6.10645 36.5321 6.39213 36.5321 6.74475C36.5321 7.09737 36.2464 7.38305 35.8938 7.38305Z" fill="#D2D2D2"/>
<path d="M38.2928 26.9932C34.2985 27.6797 30.1981 27.6471 26.0059 26.9932L26.7702 24.5731C30.3563 24.0518 33.9423 24.0518 37.5284 24.5731C37.5579 24.6665 37.355 24.0241 38.2928 26.9932Z" fill="#FD8087"/>
<path d="M36.7382 22.0708L36.7643 22.153C33.6876 22.8977 30.6108 22.8977 27.5342 22.153L28.2986 19.7329C30.7576 19.1176 33.3199 19.0906 35.9999 19.7329L36.2218 20.4359L36.7382 22.0708Z" fill="#FD8087"/>
<path d="M35.235 17.3126C33.1775 18.0573 31.12 18.0573 29.0625 17.3126L29.8265 14.8925C31.3747 14.1478 32.9228 14.1478 34.471 14.8925C34.5185 15.0438 35.0792 16.819 35.235 17.3126Z" fill="#FD8087"/>
<path d="M40.3401 28.6689C40.3401 29.5941 39.5898 30.3444 38.6646 30.3444H25.633C24.7073 30.3444 23.9575 29.5938 23.9575 28.6689C23.9575 27.7437 24.7078 26.9934 25.633 26.9934C26.2803 26.9934 38.038 26.9934 38.6646 26.9934C39.5903 26.9934 40.3401 27.744 40.3401 28.6689Z" fill="#FFE177"/>
<path d="M37.5281 24.5732H26.77L27.534 22.1531H36.7641C36.7936 22.2465 36.5908 21.604 37.5281 24.5732Z" fill="#FFE177"/>
<path d="M35.9992 19.7329H28.2979L29.0622 17.3128H35.2348C35.2642 17.4061 35.0613 16.7637 35.9992 19.7329Z" fill="#FFE177"/>
<path d="M34.3294 14.4424L34.4716 14.8925H29.8271L29.9694 14.4424C30.2698 13.4915 31.1519 12.8447 32.1494 12.8447C33.1469 12.8447 34.0289 13.4915 34.3294 14.4424Z" fill="#FFE177"/>
<path d="M14.6787 34.313L17.0476 36.7427L20.6011 32.7944" stroke="#0082FF" stroke-width="0.987057" stroke-linecap="round" stroke-linejoin="round"/>
<path d="M14.6787 42.2095L17.0476 44.6391L20.6011 40.6909" stroke="#0082FF" stroke-width="0.987057" stroke-linecap="round" stroke-linejoin="round"/>
</svg>
