<svg width="62" height="62" viewBox="0 0 62 62" fill="none" xmlns="http://www.w3.org/2000/svg">
<rect width="62" height="62" fill="white"/>
<path d="M35.4683 6.46801V12.8509H26.5322V6.46801C26.5322 4.0004 28.5326 2 31.0003 2C33.4696 2 35.4683 4.00153 35.4683 6.46801Z" fill="#FD8087"/>
<path d="M49.2555 39.6594H12.7451V46.0423H49.2555V39.6594Z" fill="#516980"/>
<path d="M15.0432 57.3135H8.02197V32.856C8.85532 32.856 14.1812 32.856 15.0432 32.856C15.0432 35.4721 15.0432 54.7234 15.0432 57.3135Z" fill="#6A829A"/>
<path d="M53.9787 32.5745V57.5956H46.9575C46.9575 55.591 46.9575 41.3083 46.9575 39.0085V32.5745C48.3766 32.5745 52.5423 32.5745 53.9787 32.5745Z" fill="#6A829A"/>
<path d="M35.468 11.5742C37.2309 11.5742 38.6594 13.0027 38.6594 14.7657L30.6595 16.7869L23.3403 14.7657C23.3403 13.0009 24.7701 11.5742 26.5318 11.5742H35.468Z" fill="#6A829A"/>
<path d="M25.9256 14.7661L20.149 26.0639L10.1891 33.9149C9.488 33.9149 7.95351 33.9149 7.2556 33.9149C4.368 33.9149 1.93732 31.9579 1.21729 29.2975L5.97902 20.5745L13.1599 14.7661C14.5752 14.7661 24.6501 14.7661 25.9256 14.7661Z" fill="#FD8087"/>
<path d="M51.4574 14.7661L45.3618 26.4468L35.7209 33.9148H22.9551L28.1278 22.0317L38.6915 14.7661H51.4574Z" fill="#FD8087"/>
<path d="M60.9999 21.0211V27.6594C60.9999 31.1138 58.1991 33.9146 54.7447 33.9146C53.4432 33.9146 49.9322 33.9146 48.4868 33.9146L51.4574 25.8721L60.6885 19.0667C60.8901 19.682 60.9999 20.3381 60.9999 21.0211Z" fill="#FD8087"/>
<path d="M37.4739 5.51983C37.2925 5.21752 37.3905 4.82546 37.6928 4.64422L40.8842 2.72936C41.1865 2.5477 41.5785 2.64607 41.7598 2.94823C41.9412 3.25053 41.8433 3.6426 41.541 3.82384L38.3495 5.73873C38.0472 5.92039 37.6551 5.82199 37.4739 5.51983Z" fill="#FFE177"/>
<path d="M43.1273 9.02119H38.6593C38.3068 9.02119 38.021 8.7354 38.021 8.38293C38.021 8.03045 38.3068 7.74463 38.6593 7.74463H43.1273C43.4799 7.74463 43.7656 8.03031 43.7656 8.38293C43.7656 8.73554 43.4799 9.02119 43.1273 9.02119Z" fill="#FFE177"/>
<path d="M23.6508 5.7387L20.4594 3.82381C20.1571 3.64257 20.0591 3.2505 20.2405 2.9482C20.4219 2.6459 20.8137 2.54781 21.1161 2.72933L24.3076 4.64419C24.6099 4.82543 24.7078 5.21749 24.5264 5.5198C24.3465 5.81999 23.9554 5.92149 23.6508 5.7387Z" fill="#FFE177"/>
<path d="M23.3402 9.02119H18.8722C18.5196 9.02119 18.2339 8.7354 18.2339 8.38293C18.2339 8.03045 18.5196 7.74463 18.8722 7.74463H23.3402C23.6928 7.74463 23.9785 8.03031 23.9785 8.38293C23.9785 8.73554 23.6928 9.02119 23.3402 9.02119Z" fill="#FFE177"/>
<path d="M13.1595 14.7661L1.21704 29.2975C1.0754 28.7754 1 28.2264 1 27.6597V21.0215C1 17.567 3.80078 14.7663 7.25536 14.7663L13.1595 14.7661Z" fill="#FFE177"/>
<path d="M38.6915 14.7661L22.9549 33.9149C21.743 33.9149 11.5977 33.9149 10.189 33.9149L25.9255 14.7661C26.7786 14.7661 37.8388 14.7661 38.6915 14.7661Z" fill="#FFE177"/>
<path d="M60.6883 19.0667L48.4867 33.9147C46.6466 33.9147 37.9112 33.9147 35.7207 33.9147L51.4573 14.7659H54.7445C57.516 14.766 59.8673 16.5697 60.6883 19.0667Z" fill="#FFE177"/>
<path d="M55.2553 56.2549C56.3123 56.2549 57.1702 57.1127 57.1702 58.1697C57.1702 59.2251 56.3123 60.0846 55.2553 60.0846H45.681C44.624 60.0846 43.7661 59.2267 43.7661 58.1697C43.7661 57.1144 44.624 56.2549 45.681 56.2549H46.9576C48.0129 56.2549 54.0329 56.2549 55.2553 56.2549Z" fill="#516980"/>
<path d="M16.3193 56.2549C17.3763 56.2549 18.2342 57.1127 18.2342 58.1697C18.2342 59.2251 17.3763 60.0846 16.3193 60.0846H6.74495C5.68794 60.0846 4.83008 59.2267 4.83008 58.1697C4.83008 57.1144 5.68794 56.2549 6.74495 56.2549C7.96699 56.2549 13.9866 56.2549 15.0427 56.2549H16.3193Z" fill="#516980"/>
</svg>
