<svg width="62" height="62" viewBox="0 0 62 62" fill="none" xmlns="http://www.w3.org/2000/svg">
<rect width="62" height="62" fill="white"/>
<path d="M46.4486 1C39.431 1 22.029 1 15.6897 1C11.9945 1 9 3.99447 9 7.68958V54.3104C9 58.0056 11.9945 61 15.6897 61H46.4486C50.1438 61 53.1381 58.0055 53.1381 54.3104V7.68958C53.1383 3.99447 50.1438 1 46.4486 1Z" fill="#D8ECFE"/>
<rect x="14.3325" y="7.39893" width="11.7312" height="4.26589" fill="white"/>
<rect x="14.3325" y="16.9971" width="11.7312" height="4.26589" fill="white"/>
<rect x="14.3325" y="26.5952" width="11.7312" height="4.26589" fill="white"/>
<rect x="14.3325" y="36.1936" width="34.1272" height="4.26589" fill="white"/>
<rect x="14.3325" y="43.6589" width="34.1272" height="11.7312" fill="white"/>
<path d="M46.9235 18.8953C46.9235 17.1489 46.4056 15.4416 45.4353 13.9894C44.465 12.5373 43.0859 11.4055 41.4723 10.7371C39.8588 10.0688 38.0833 9.89389 36.3704 10.2346C34.6574 10.5753 33.084 11.4164 31.8491 12.6513C30.6141 13.8863 29.7731 15.4597 29.4324 17.1726C29.0916 18.8855 29.2665 20.661 29.9349 22.2746C30.6032 23.8881 31.735 25.2673 33.1872 26.2376C34.6393 27.2079 36.3466 27.7257 38.0931 27.7257V18.8953H46.9235Z" fill="#0082FF"/>
<path d="M39.6291 29.2615C40.7887 29.2615 41.937 29.0331 43.0083 28.5893C44.0797 28.1455 45.0531 27.4951 45.8731 26.6751C46.6931 25.8551 47.3435 24.8817 47.7873 23.8103C48.2311 22.739 48.4595 21.5907 48.4595 20.4311L39.6291 20.4311L39.6291 29.2615Z" fill="white"/>
</svg>
