<svg width="62" height="62" viewBox="0 0 62 62" fill="none" xmlns="http://www.w3.org/2000/svg">
<rect width="62" height="62" fill="white"/>
<path d="M46.3882 18.7812C46.3882 19.7021 46.3224 20.32 46.1576 21.1912H33.7217V4.1001H33.7257C41.1487 5.27292 46.3882 11.3649 46.3882 18.7812Z" fill="#FFE177"/>
<path d="M28.1105 4.09204V21.1911H15.2979C15.1531 20.3561 15.062 19.6509 15.062 18.7812C15.062 11.0846 20.2787 4.92028 28.1105 4.09204Z" fill="#FFE177"/>
<path d="M28.1105 4.09217V3.80533C28.1105 2.25994 29.3692 1 30.9158 1C32.456 1 33.7212 2.25994 33.7212 3.80533V4.10017V21.1912H28.1104V4.09217H28.1105Z" fill="#FFC048"/>
<path d="M45.2529 27.0217C45.4218 27.9506 45.5236 28.9425 45.5236 29.9209C45.5236 38.7325 38.1891 45.9477 31.0972 45.9477C23.996 45.9477 16.3813 38.66 16.3813 29.8486C16.3813 28.8781 16.4778 27.9359 16.6466 27.0217H45.2529Z" fill="#FFE4C2"/>
<path d="M57.9041 61H4C8.60279 54.1521 18.9396 49.3831 30.9521 49.3831C42.9711 49.3831 53.308 54.1521 57.9041 61Z" fill="#D8ECFE"/>
<path d="M50.1786 23.5018V24.7176C50.1786 26.0632 49.0781 27.1557 47.7405 27.1557H45.2528H16.6467H14.2435C12.8977 27.1557 11.7974 26.0634 11.7974 24.7176V23.5018C11.7974 22.1574 12.8979 21.0569 14.2435 21.0569H15.2984H28.111H33.7217H46.1577H47.7406C49.0781 21.0571 50.1786 22.1574 50.1786 23.5018Z" fill="#FFA800"/>
</svg>
