<svg width="62" height="62" viewBox="0 0 62 62" fill="none" xmlns="http://www.w3.org/2000/svg">
<rect width="62" height="62" fill="white"/>
<path d="M51.1673 1H10.8268C5.39745 1 0.99707 5.4004 0.99707 10.8298V33.2979C0.99707 34.0434 1.08006 34.7698 1.23707 35.4681C21.077 38.1347 40.9171 38.1347 60.757 35.4681C60.914 34.7698 60.9971 34.0434 60.9971 33.2979V10.8298C60.9971 5.4004 56.5965 1 51.1673 1Z" fill="#D8ECFE"/>
<path d="M41.0429 50.7874L43.1244 55.2556H16.4336L18.5151 50.7874H41.0429Z" fill="#D77A43"/>
<path d="M49.1501 56.9114C49.9786 58.8467 48.559 61.0003 46.4526 61.0003C45.2795 61.0003 44.2185 60.3007 43.7564 59.222C43.7506 59.2086 39.0366 48.2123 36.8589 43.128C38.8724 41.5784 41.0111 41.7295 43.2418 43.128L49.1501 56.9114Z" fill="#DC8758"/>
<path d="M22.6993 43.128C15.7627 59.3153 15.8042 59.2165 15.8018 59.222C15.3397 60.3007 14.2789 61.0003 13.1056 61.0003C10.9992 61.0003 9.57969 58.8467 10.4094 56.9113L16.3162 43.128C18.3502 41.6662 20.4762 41.6398 22.6993 43.128Z" fill="#DC8758"/>
<path d="M55.2526 8.02148V11.213C53.0788 11.6568 50.9491 11.6769 48.8696 11.213L49.5079 8.02148H55.2526Z" fill="#FFE177"/>
<path d="M55.2526 11.2129V14.4044L49.2845 15.681L48.8696 11.2129H55.2526Z" fill="#62DBFB"/>
<path d="M1.2373 35.4683H60.7573C59.7692 39.8533 55.8513 43.1278 51.1675 43.1278C49.9401 43.1278 12.9827 43.1278 10.8271 43.1278C6.14323 43.1278 2.2254 39.8533 1.2373 35.4683Z" fill="#C4E2FF"/>
<path d="M45.5507 18.8086L36.7422 20.7873V29.7236H50.1465L55.2528 24.6171V20.7873L45.5507 18.8086Z" fill="#46CC8D"/>
<path d="M48.8696 14.4044L48.2313 8.02148H41.2101L38.3377 9.36191L35.4653 8.02148H27.1675V15.681L32.2738 20.7874H55.2525V14.4044H48.8696Z" fill="#6ED5A1"/>
<path d="M14.7549 10.0854C8.93821 13.6037 9.05532 14.6753 8.37207 14.7773V21.7029C8.37207 22.9603 9.3909 23.9791 10.6483 23.9791H12.202L14.7551 22.9577L17.3083 23.9791H18.862C20.1194 23.9791 21.1381 22.9603 21.1381 21.7029V14.7773C20.4591 14.6758 20.6223 13.6345 14.7549 10.0854Z" fill="#FFE177"/>
<path d="M17.3085 18.8725V23.9788H12.2021V18.8725C12.2021 17.4619 13.346 16.3193 14.7553 16.3193C16.1762 16.3193 17.3085 17.4744 17.3085 18.8725Z" fill="#6A829A"/>
<path d="M22.4259 11.2527C23.3259 11.8067 23.6068 12.9863 23.0528 13.8876C22.5132 14.7646 21.3473 15.0829 20.4192 14.5145L14.755 11.0293L9.09198 14.5145C8.86479 14.6548 8.61954 14.7404 8.37192 14.7774C7.21189 14.9507 6.17236 14.048 6.17236 12.8855C6.17236 12.2422 6.49666 11.614 7.0852 11.2528L12.1941 8.10858C13.7642 7.14219 15.7455 7.14219 17.3158 8.10858L22.4259 11.2527Z" fill="#FD8087"/>
<path d="M49.508 8.02148V16.9576C49.508 17.3099 49.2221 17.5959 48.8697 17.5959C48.5174 17.5959 48.2314 17.3099 48.2314 16.9576V8.02148H49.508Z" fill="#46CC8D"/>
<path d="M36.1036 14.4045L35.4653 15.6811V17.596C35.4653 17.9485 35.751 18.2343 36.1036 18.2343C36.4561 18.2343 36.7419 17.9485 36.7419 17.596V15.0428C36.7419 14.6902 36.4563 14.4045 36.1036 14.4045Z" fill="#46CC8D"/>
<path d="M41.21 8.02148V15.681H35.4653C35.4653 13.2767 35.4653 11.4665 35.4653 8.02148H41.21Z" fill="#FFE177"/>
<path d="M55.2524 24.6172V29.7235H50.146C50.146 26.9036 52.4324 24.6172 55.2524 24.6172Z" fill="#FFE177"/>
<path d="M32.2738 20.7872H27.1675V15.6809C29.9874 15.6809 32.2738 17.9673 32.2738 20.7872Z" fill="#FFE177"/>
</svg>
