<svg xmlns="http://www.w3.org/2000/svg" xml:space="preserve" id="레이어_1" x="0px" y="0px" style="enable-background:new 0 0 1140.1 705" version="1.1" viewBox="0 0 1140.1 705"><style>.st2{fill:#ffb400}.st3{fill:#0082ff}</style><path d="M382.1 58.7v82.5h56v47.7h-56v87.6h61.6v54.6h-116V4.1h116v54.6z"/><path d="M307.5 246.8c0 56.3-20.8 87.7-72.6 87.7-53 0-76.7-24.5-76.7-116.7h54.3c0 52.6 6.9 62.4 22.4 62.4 14.3 0 18.4-9 18.4-33.4 0-27.3-6.5-38.3-34.7-61.2-29.4-23.3-59.6-44.1-59.6-102.8C159 31 180.6 0 230.8 0c49.8 0 73.4 31 73.4 100.3h-54.7c0-37.5-6.9-46.1-18.8-46.1-12.2 0-17.5 8.6-17.5 28.6 0 25.7 11.8 36.7 35.1 54.7 34.3 26.1 59.2 48.5 59.2 109.3z" style="fill:#00d778"/><path d="M795.3 4h54.3v238.2c0 65.7-26.1 92.2-74.7 92.2-48.5 0-74.7-26.5-74.7-92.2V4h54.3v235.4c0 31 3.7 40.8 20.4 40.8s20.4-9.8 20.4-40.8V4zM923.9 4.1v272.6h58v54.4H869.5V4.1h54.4z"/><path d="M636.1 1.4c-44.5-9.4-67 31.9-67 31.9S546.7-8 501.9 1.4c-44.5 9.1-57 82.8-37.2 149.2 17.9 61.9 58.4 132.3 96.2 178.4 4.3 5.1 12.3 5.1 16.3 0 38.3-46.1 78.2-116.5 96.7-178.4 19.5-66.4 6.9-140.1-37.8-149.2zM620 160.2c-10.3 25.7-23.4 57.6-50.6 92.6-27.7-35-40.8-66.9-51.1-92.6-10.3-25.4-21.1-85.8 5.5-93.3 20.4-5.8 34.5 14.3 41 27.4 1.8 3.5 7 3.5 8.8 0 6.5-13.1 20.4-33.2 40.8-27.4 26.7 7.5 15.9 67.9 5.6 93.3z" style="fill:#ff0a73"/><path d="m98.9 580.2 44.6-205.6h54.4v327h-54.4V544.2l-30.7 157.4H85L54.4 544.2v157.4H0v-327h54.4l44.5 205.6z"/><path d="m413.4 374.6-88.7 203h-29.1l-88.7-203z" class="st2"/><circle cx="310.2" cy="650.7" r="54.3" class="st2"/><path d="M612 617.3c0 56.3-20.8 87.7-72.5 87.7-52.9 0-76.6-24.5-76.6-116.7h54.2c0 52.6 6.9 62.4 22.4 62.4 14.3 0 18.3-9 18.3-33.4 0-27.3-6.5-38.3-34.6-61.2-29.3-23.3-59.5-44.1-59.5-102.8 0-51.8 21.6-82.8 71.7-82.8 49.7 0 73.3 31 73.3 100.3h-54.6c0-37.5-6.9-46.1-18.7-46.1-12.2 0-17.5 8.6-17.5 28.6 0 25.7 11.8 36.7 35 54.7 34.2 26.1 59.1 48.5 59.1 109.3zM781 462.7v150.1c0 65.7-26.1 92.2-74.6 92.2s-74.6-26.5-74.6-92.2V462.7c0-65.7 26.1-92.2 74.6-92.2S781 397 781 462.7zm-54.2 2.9c0-31-3.7-40.8-20.4-40.8s-20.4 9.8-20.4 40.8V610c0 31 3.7 40.8 20.4 40.8s20.4-9.8 20.4-40.8V465.6zM1082 374.6v272.6h58v54.4h-112.4v-327h54.4z"/><path d="M1010 558.6v39.2c0 58.2-47.4 105.6-105.6 105.6S798.7 656 798.7 597.8v-39.2H853v39.2c0 28.3 23 51.3 51.3 51.3 28.3 0 51.3-23 51.3-51.3v-39.2h54.4zM833.3 374.6h54.3V533h-54.3zM921.2 374.6h54.3V533h-54.3z" class="st3"/></svg>